<svg width="30" height="30" viewBox="0 0 30 30" fill="none" xmlns="http://www.w3.org/2000/svg">
<path d="M15 0C16.9698 0 18.9204 0.387987 20.7403 1.14181C22.5601 1.89563 24.2137 3.00052 25.6066 4.3934C26.9995 5.78628 28.1044 7.43986 28.8582 9.25975C29.612 11.0796 30 13.0302 30 15C30 18.9782 28.4196 22.7936 25.6066 25.6066C22.7936 28.4196 18.9782 30 15 30C13.0302 30 11.0796 29.612 9.25975 28.8582C7.43986 28.1044 5.78628 26.9995 4.3934 25.6066C1.58035 22.7936 0 18.9782 0 15C0 11.0218 1.58035 7.20644 4.3934 4.3934C7.20644 1.58035 11.0218 0 15 0ZM15 3C8.88 3 3.825 7.575 3.09 13.5H9.195C9.855 10.905 12.21 9 15 9C17.79 9 20.145 10.905 20.805 13.5H26.91C26.175 7.575 21.12 3 15 3ZM15 27C21.12 27 26.175 22.425 26.91 16.5H20.805C20.145 19.095 17.79 21 15 21C12.21 21 9.855 19.095 9.195 16.5H3.09C3.825 22.425 8.88 27 15 27ZM15 12C14.2044 12 13.4413 12.3161 12.8787 12.8787C12.3161 13.4413 12 14.2044 12 15C12 15.7956 12.3161 16.5587 12.8787 17.1213C13.4413 17.6839 14.2044 18 15 18C15.7956 18 16.5587 17.6839 17.1213 17.1213C17.6839 16.5587 18 15.7956 18 15C18 14.2044 17.6839 13.4413 17.1213 12.8787C16.5587 12.3161 15.7956 12 15 12Z" fill="white"/>
</svg>
